<?xml version="1.0" encoding="UTF-8"?>
<svg id="Layer_1" xmlns="http://www.w3.org/2000/svg" version="1.1" viewBox="0 0 328.06 290.39">
  <!-- Generator: Adobe Illustrator 29.5.0, SVG Export Plug-In . SVG Version: 2.1.0 Build 137)  -->
  <defs>
    <style>
      .st0 {
        fill: #f4a300;
      }
    </style>
  </defs>
  <path class="st0" d="M293.8,154.62c-6.62.09-59.18-.31-59.18-.31,1.14-12.09,2.5-23.14,3.41-30.88,3.59-30.71,20.65-91.08,22.54-97.67,1.88-6.59-2-6.59-3.53-3.53-1.53,3.06-20.65,45.16-27.53,59.41-12.11,25.1-21.68,46.81-29.18,63.99.97-7.99.64-17.18-.88-20.32-1.25-2.76-3.07-4.49-5.3-5.53,1.55-6.35,3.57-14.55,5.1-20.91.67-2.8,2.58-9.91,1.1-10.68-.37-.19-.81.09-1.12.37-1.33,1.18-2.06,3-2.77,4.59-4.14,9.27-8.82,16.96-14.26,25.61-3.74.42-7.73,1.21-11.69,1.79-51.66,9.17-78.94,23.97-88.51,28.71-7.21,3.57-11.72,8.79-3.43,8.79,2.9,0,35.69.08,77.81.17-.06.08-.11.16-.16.24,0,0-15.94,17.79-33.35,34.97-.94.93-2.82,2.2-3.79,3.09-2,1.82-4.27,3.56-6.35,5.29-10.16,8.44-20.04,16.14-31.53,22.65-.18.1-.35.2-.53.3-11.49,6.46-24.82,12.96-38.26,13.31-7.8.2-15.34-3.13-19.18-10.13-.56-1.02-.93-2.13-1.18-3.26-1.22-5.54-.29-11.73,1.72-16.97,1.02-2.67,2.39-5.2,4.05-7.52.83-1.16,1.74-2.26,2.72-3.3.65-.69,2.07-2.59,3.01-2.8-4.47.97-8.46,3.68-11.39,7.19-2.93,3.51-4.85,7.79-6.02,12.21-1,3.77-1.47,7.72-1.04,11.59.06.56.14,1.13.24,1.69,1.66,10.13,11.39,16.33,20.92,17.61,6.14.82,12.68-.18,18.62-1.77,6.51-1.74,12.74-4.43,18.73-7.51,11.54-5.92,22.15-13.57,32.23-21.69,10.92-8.79,21.28-18.26,31.5-27.84,8.26-7.75,16.25-17.37,23.54-27.35,6.71.01,13.64.03,20.69.04-3.82,15.29-7.05,28.28-7.7,31.02-1.76,7.41-3.01,16.13-.71,16.41,3.81.46,16.74-28.35,24.89-47.4,10.56.02,21.27.04,31.89.06-.14,2.16-.28,4.42-.42,6.81-.31,5.28,3.12,34.18,3.12,34.18-.44-12.56.41-27.26,1.62-40.98,0,0,45.93.14,53.61-.02,17.12-.35,29.71-1.18,29.71-1.18,0,0-17.15-2.64-23.76-2.55ZM198.57,133.7c.45,5.21-1.61,13.27-2.05,20.68-.04.09-.08.18-.12.26-3.59.03-7.2.06-10.81.1,2.58-10.57,5.17-21.14,7.77-31.71,4.97,2.29,4.88,6.94,5.21,10.67ZM196.27,99.47s-2.03,8.08-4.86,19.42c-1.62-.35-3.38-.46-5.24-.41,6.33-11.26,10.1-19.01,10.1-19.01ZM83.16,155.67c-5.21.09-4.59-1.15-3.35-2.56,1.24-1.41,16.35-9.41,34.41-15.53,19.7-6.67,40.24-12,62.33-15.25,1.31-.19,2.53-.34,3.69-.45-2.15,3.37-4.32,6.72-6.47,10.06-4.98,7.74-10.05,15.42-15.2,23.04-39.6.35-73.26.65-75.4.69ZM163.24,154.94c8.27-11.64,15.54-23.53,21.14-33.31,2.5-.05,4.55.14,6.22.5-2.47,9.88-5.42,21.67-8.16,32.64-6.46.06-12.89.11-19.2.17ZM186.8,176.11c-4.18,8.78-10.71,23.06-11.18,21.65-.07-.22.06-.59.09-.81,1.33-9.72,4.36-19.44,6.66-28.95.78-3.24,1.58-6.48,2.36-9.72,3.33,0,6.69.01,10.07.02-3.11,7.11-5.76,13.1-8.01,17.81ZM199.61,154.62c.57-1.34,1.11-2.62,1.6-3.8,7.41-17.65,52.29-114.82,52.29-114.82,0,0-13.4,47.99-16.47,65.59-2.84,16.25-4.86,24.49-6.84,52.77-9.72.09-20.07.18-30.59.27Z"/>
</svg>