<?xml version="1.0" encoding="UTF-8"?>
<svg id="Layer_1" xmlns="http://www.w3.org/2000/svg" version="1.1" viewBox="0 0 600 600">
  <!-- Generator: Adobe Illustrator 29.5.0, SVG Export Plug-In . SVG Version: 2.1.0 Build 137)  -->
  <path d="M545.92,330.65c-10.08.13-95.51.4-109.21.54-4.52.04-39.46.35-84.55.75,1.74-18.41,3.81-35.23,5.19-47.02,5.46-46.75,31.45-138.67,34.31-148.7,2.87-10.03-3.04-10.03-5.37-5.37s-31.45,68.76-41.91,90.45c-18.44,38.22-33.01,71.27-44.42,97.43,1.47-12.16.97-26.15-1.34-30.93-1.9-4.19-4.67-6.83-8.06-8.42,2.36-9.66,5.44-22.15,7.76-31.83,1.02-4.27,3.93-15.09,1.68-16.25-.57-.29-1.24.13-1.71.56-2.02,1.8-3.14,4.57-4.22,6.98-6.3,14.12-13.42,25.82-21.71,38.99-5.7.65-11.78,1.84-17.8,2.72-78.64,13.96-120.19,36.49-134.75,43.71-10.98,5.43-17.85,13.39-5.22,13.39,4.42,0,54.34.12,118.46.25-.08.12-.17.25-.25.37,0,0-24.27,27.09-50.78,53.24-1.43,1.41-4.29,3.35-5.78,4.7-3.05,2.77-6.5,5.43-9.67,8.06-15.47,12.85-30.51,24.57-48,34.48-.27.15-.53.3-.8.45-17.49,9.84-37.79,19.73-58.26,20.27-11.87.31-23.35-4.76-29.19-15.43-.85-1.55-1.41-3.24-1.79-4.96-1.86-8.43-.45-17.86,2.61-25.83,1.56-4.06,3.63-7.92,6.17-11.45,1.27-1.76,2.65-3.45,4.14-5.03.99-1.05,3.15-3.95,4.58-4.26-6.81,1.47-12.88,5.61-17.35,10.95-4.46,5.35-7.39,11.86-9.17,18.59-1.52,5.74-2.23,11.75-1.58,17.65.1.86.22,1.72.36,2.57,2.52,15.42,17.34,24.87,31.85,26.81,9.35,1.25,19.31-.27,28.35-2.69,9.92-2.65,19.4-6.75,28.52-11.43,17.57-9.02,33.72-20.66,49.08-33.02,16.63-13.38,32.4-27.8,47.95-42.39,12.57-11.79,24.73-26.45,35.83-41.64,10.22.02,20.76.04,31.51.06-5.81,23.27-10.73,43.05-11.73,47.22-2.69,11.28-4.58,24.56-1.07,24.99,5.8.7,25.49-43.17,37.89-72.16,16.08.03,32.38.06,48.55.09-.21,3.29-.43,6.73-.64,10.37-.48,8.04,4.75,52.03,4.75,52.03-.67-19.12.62-41.51,2.47-62.39,89.97.15,173.81.21,185.51-.03,26.06-.54,45.23-1.79,45.23-1.79,0,0-26.33-5.78-36.4-5.64h-.02ZM297.26,300.55c.69,7.93-2.45,20.2-3.12,31.49-.06.13-.12.27-.18.4-5.47.05-10.96.1-16.45.15,3.92-16.1,7.87-32.19,11.82-48.28,7.57,3.49,7.43,10.56,7.93,16.25h0ZM293.77,248.43s-3.08,12.31-7.4,29.56c-2.46-.53-5.15-.69-7.98-.62,9.64-17.14,15.38-28.94,15.38-28.94ZM121.55,334c-7.93.13-6.99-1.75-5.1-3.9,1.88-2.15,24.9-14.33,52.38-23.64,29.99-10.16,61.26-18.27,94.9-23.22,1.99-.29,3.85-.52,5.61-.69-3.28,5.14-6.58,10.23-9.85,15.32-7.58,11.78-15.3,23.48-23.15,35.08-60.29.53-111.54,1-114.79,1.05ZM243.48,332.89c12.59-17.72,23.66-35.83,32.18-50.71,3.8-.07,6.92.21,9.47.76-3.76,15.03-8.25,33-12.42,49.69-9.83.09-19.62.17-29.23.26h0ZM279.35,365.13c-6.36,13.37-16.3,35.11-17.02,32.96-.11-.33.09-.91.13-1.24,2.02-14.8,6.64-29.59,10.13-44.08,1.19-4.93,2.4-9.86,3.6-14.79,5.08,0,10.19.02,15.34.03-4.73,10.83-8.77,19.94-12.19,27.12h0ZM298.85,332.4c.87-2.04,1.69-3.99,2.44-5.78,11.28-26.87,79.62-174.81,79.62-174.81,0,0-20.4,73.07-25.08,99.86-4.32,24.74-7.4,37.28-10.41,80.33-14.8.13-30.55.27-46.57.41h0Z"/>
  <g>
    <g>
      <path d="M172.18,288.34l-31.28-7.78,1.5-6.04,10.75-.6c1.05-.07,2.02-.1,2.91-.1.89.01,1.55.02,1.97.03-.38-.18-.96-.48-1.76-.89-.79-.41-1.64-.88-2.54-1.4l-9.25-5.44,1.5-6.04,31.28,7.78-1.17,4.71-10.11-2.51c-1.4-.35-2.92-.77-4.55-1.27s-3.28-1.02-4.93-1.57c-1.65-.55-3.22-1.09-4.71-1.63s-2.78-1-3.86-1.39l13.86,8.13-1.17,4.71-16.07.78c1.12.13,2.44.3,3.94.52,1.51.22,3.11.48,4.81.76s3.41.6,5.11.93c1.71.33,3.32.69,4.83,1.06l10.11,2.51-1.17,4.71v.03Z"/>
      <path d="M182.14,254.89l-28.84-14.39,4.14-8.3c.97-1.95,2.18-3.44,3.62-4.48s3.02-1.63,4.75-1.75c1.72-.12,3.5.26,5.31,1.17l10.94,5.46c1.82.91,3.2,2.09,4.15,3.55s1.44,3.08,1.47,4.86c.04,1.78-.43,3.64-1.41,5.59l-4.14,8.3h.01ZM180.22,248.16l1.83-3.67c.76-1.53.94-2.93.53-4.23s-1.35-2.3-2.83-3.04l-10.94-5.46c-1.45-.72-2.81-.86-4.09-.41s-2.3,1.44-3.06,2.96l-1.83,3.68,20.38,10.17h0Z"/>
      <path d="M220.12,200.8l-13.64-30.33,5.26-4.17,26.43,20.17-4.08,3.24-6.45-5.08-6.92,5.49,3.51,7.41-4.12,3.27h.01ZM218.81,186.22l5.43-4.31-7.16-5.76c-1.23-.98-2.32-1.86-3.26-2.65-.95-.79-1.6-1.34-1.96-1.66.22.43.61,1.18,1.17,2.26s1.17,2.33,1.85,3.75l3.94,8.37h0Z"/>
      <path d="M249.25,179.73l-14.12-28.97,8.69-4.24c2.78-1.36,5.3-1.76,7.56-1.23,2.26.54,3.96,1.97,5.09,4.3.63,1.3.89,2.57.78,3.82-.11,1.25-.54,2.38-1.29,3.4-.75,1.02-1.77,1.85-3.07,2.48l-.14-.28c1.42-.72,2.81-1.07,4.18-1.05s2.63.42,3.8,1.19c1.16.78,2.11,1.92,2.85,3.43.81,1.67,1.15,3.3,1.02,4.91-.14,1.6-.72,3.07-1.76,4.39-1.04,1.33-2.5,2.45-4.38,3.36l-9.21,4.49h0ZM245.48,160.6l4.17-2.03c1.37-.67,2.28-1.56,2.7-2.67.43-1.11.34-2.28-.27-3.53-.62-1.27-1.49-2.07-2.62-2.41-1.13-.33-2.37-.17-3.72.48l-4.21,2.05,3.95,8.1h0ZM251.82,173.62l4.41-2.15c1.48-.72,2.47-1.69,2.95-2.91.49-1.22.39-2.53-.3-3.93-.7-1.43-1.69-2.36-2.98-2.79s-2.68-.29-4.16.43l-4.4,2.15,4.49,9.21h-.01Z"/>
      <path d="M281.14,166.12l-1.06-4.42,6.31-1.51-5.38-22.5-6.31,1.51-1.06-4.42,17.69-4.23,1.06,4.42-6.31,1.51,5.38,22.5,6.31-1.51,1.06,4.42-17.69,4.23Z"/>
      <path d="M314.05,159.91l-.48-32.23,10.15-.15c2.09-.03,3.91.33,5.47,1.09,1.56.76,2.77,1.84,3.65,3.26s1.33,3.08,1.36,4.99c.03,2.15-.49,4.03-1.55,5.65-1.07,1.62-2.52,2.77-4.36,3.44l6.69,13.63-5.78.08-5.98-12.93-4.24.06.19,13.02-5.12.08h0ZM318.91,142.26l5.03-.07c1.56-.02,2.8-.49,3.71-1.4.91-.91,1.36-2.15,1.34-3.71-.02-1.56-.51-2.79-1.45-3.69-.94-.9-2.19-1.34-3.75-1.31l-5.03.08.15,10.11h0Z"/>
      <path d="M415.72,187.36l26.66-19.86,5.21,4.23-13.98,30.17-4.04-3.28,3.56-7.4-6.85-5.57-6.48,5.03-4.08-3.31h0ZM429.66,182.93l5.38,4.37,4.08-8.24c.69-1.41,1.32-2.66,1.89-3.76.56-1.09.96-1.85,1.19-2.27-.37.31-1.02.85-1.95,1.63-.94.78-2.02,1.65-3.26,2.61l-7.32,5.65h0Z"/>
      <path d="M443.26,212.13l25.25-20.03,3.21,4.05-21.51,17.07,8.62,10.86-3.73,2.96-11.83-14.91h0Z"/>
    </g>
    <g>
      <path d="M247.75,451.31l2.22-4.42,22.01-14.15-11.68-5.85,2.14-4.26,16.66,8.35-2.22,4.42-22.01,14.15,12.31,6.17-2.14,4.26-17.29-8.67h0Z"/>
      <path d="M294.8,469.44c-3.06-.63-5.26-1.95-6.6-3.97s-1.72-4.47-1.13-7.35l4.65-22.66,5.02,1.03-4.64,22.62c-.32,1.56-.18,2.86.42,3.89.6,1.04,1.66,1.72,3.19,2.03,1.5.31,2.74.1,3.71-.61s1.62-1.85,1.94-3.41l4.64-22.62,5.02,1.03-4.65,22.66c-.59,2.88-1.9,4.99-3.91,6.32-2.01,1.33-4.57,1.68-7.65,1.04h0Z"/>
      <path d="M325.89,472.47l-1.94-32.17,9.65-.58c3.09-.18,5.57.4,7.45,1.76,1.88,1.36,2.9,3.34,3.06,5.92.09,1.44-.16,2.71-.74,3.83s-1.41,1.99-2.49,2.65c-1.08.65-2.34,1.03-3.78,1.11l-.02-.31c1.58-.12,3.01.08,4.26.63s2.27,1.4,3.05,2.56,1.22,2.58,1.32,4.26c.11,1.85-.2,3.49-.94,4.92-.74,1.43-1.84,2.56-3.31,3.38-1.47.83-3.25,1.3-5.33,1.43l-10.22.62h-.02ZM329.73,453.35l4.63-.28c1.53-.09,2.7-.57,3.52-1.43.82-.86,1.19-1.98,1.1-3.36-.08-1.41-.58-2.49-1.5-3.23s-2.12-1.07-3.62-.98l-4.67.28.54,8.99h0ZM330.61,467.81l4.89-.3c1.65-.1,2.93-.62,3.84-1.56.92-.94,1.33-2.19,1.24-3.75-.1-1.58-.66-2.83-1.68-3.72-1.03-.9-2.36-1.3-4.01-1.2l-4.89.29.62,10.22v.02Z"/>
      <path d="M364.58,467.81l-2.4-33.16,6.37-2.11,17.9,28.02-4.95,1.64-4.32-6.98-8.38,2.78.76,8.17-4.99,1.66v-.02ZM368.35,453.67l6.58-2.18-4.75-7.87c-.82-1.34-1.53-2.55-2.15-3.61-.62-1.07-1.04-1.81-1.27-2.23.06.47.17,1.31.32,2.52s.3,2.59.45,4.16l.83,9.22h-.01Z"/>
      <path d="M410.02,447.86l-6.47-9.85-19.19-11.85,4.46-2.93,10.93,6.82c.77.48,1.47.97,2.1,1.47.63.51,1.1.92,1.42,1.24-.17-.42-.36-1.01-.57-1.79-.21-.78-.4-1.61-.55-2.49l-2.03-12.66,4.46-2.93,3.25,22.32,6.47,9.85-4.28,2.81h0Z"/>
      <path d="M436.87,426.68l-24.11-21.4,12.69-14.3,3.37,2.99-9.32,10.5,6.57,5.83,8.29-9.34,3.37,2.99-8.29,9.35,7.43,6.59,9.32-10.5,3.37,2.99-12.69,14.3h0Z"/>
      <path d="M461.46,394.76l-28.79-14.5,4.57-9.07c.94-1.86,2.11-3.31,3.5-4.34s2.92-1.6,4.58-1.72c1.66-.12,3.34.25,5.05,1.11,1.92.97,3.35,2.3,4.29,3.99s1.29,3.52,1.03,5.46l15.18.38-2.6,5.17-14.23-.69-1.91,3.79,11.63,5.86-2.3,4.57h0ZM448.07,382.29l2.26-4.49c.7-1.39.86-2.71.48-3.94s-1.27-2.2-2.67-2.9-2.7-.84-3.94-.43c-1.23.42-2.2,1.32-2.9,2.72l-2.27,4.5,9.03,4.55h0Z"/>
    </g>
  </g>
</svg>