<svg width="1440" height="981" viewBox="0 0 1440 981" fill="none" xmlns="http://www.w3.org/2000/svg">
<g filter="url(#filter0_f_39_10)">
<path fill-rule="evenodd" clip-rule="evenodd" d="M1146.52 777.791C992.621 790.702 683.846 818.14 653.688 697.029C623.53 575.918 781.635 454.945 1006.82 426.828C1232.01 398.71 1425.97 532.648 1469.17 595.208C1512.37 657.767 1573.8 764.402 1521.82 809.351C1476.04 848.941 1300.42 764.88 1146.52 777.791Z" fill="url(#paint0_linear_39_10)" fill-opacity="0.2"/>
</g>
<g filter="url(#filter1_f_39_10)">
<path fill-rule="evenodd" clip-rule="evenodd" d="M419.954 488.921C157.927 510.223 -156.812 449.916 -192.639 356.239C-228.466 262.561 28.1877 170.987 290.214 149.685C446.286 136.997 526.239 171.746 652.464 202.149C778.689 232.552 836.427 276.091 850.914 313.972C886.741 407.649 681.98 467.62 419.954 488.921Z" fill="url(#paint1_linear_39_10)" fill-opacity="0.2"/>
</g>
<defs>
<filter id="filter0_f_39_10" x="490" y="263" width="1211.71" height="717.042" filterUnits="userSpaceOnUse" color-interpolation-filters="sRGB">
<feFlood flood-opacity="0" result="BackgroundImageFix"/>
<feBlend mode="normal" in="SourceGraphic" in2="BackgroundImageFix" result="shape"/>
<feGaussianBlur stdDeviation="80" result="effect1_foregroundBlur_39_10"/>
</filter>
<filter id="filter1_f_39_10" x="-456" y="-113" width="1570.99" height="866.205" filterUnits="userSpaceOnUse" color-interpolation-filters="sRGB">
<feFlood flood-opacity="0" result="BackgroundImageFix"/>
<feBlend mode="normal" in="SourceGraphic" in2="BackgroundImageFix" result="shape"/>
<feGaussianBlur stdDeviation="130" result="effect1_foregroundBlur_39_10"/>
</filter>
<linearGradient id="paint0_linear_39_10" x1="1003.54" y1="524.025" x2="1123.41" y2="796.863" gradientUnits="userSpaceOnUse">
<stop stop-color="#E3B3FF"/>
<stop offset="0.161876" stop-color="#FF711D"/>
<stop offset="0.624586" stop-color="#FEBB66"/>
<stop offset="0.79386" stop-color="#FDCD49"/>
<stop offset="1" stop-color="#FDCD49" stop-opacity="0"/>
</linearGradient>
<linearGradient id="paint1_linear_39_10" x1="820.241" y1="313.171" x2="-86.8064" y2="278.604" gradientUnits="userSpaceOnUse">
<stop stop-color="#62628C" stop-opacity="0"/>
<stop offset="0.07" stop-color="#8686FF"/>
<stop offset="0.48" stop-color="#4242E3"/>
<stop offset="0.91" stop-color="#2FC4FF"/>
<stop offset="1" stop-color="#33A6F9" stop-opacity="0"/>
</linearGradient>
</defs>
</svg>
