<svg width="33" height="33" viewBox="0 0 33 33" fill="none" xmlns="http://www.w3.org/2000/svg">
<g clip-path="url(#clip0_10_164)">
<path d="M16.849 4.12983C16.7331 4.12661 16.6167 4.125 16.5 4.125C9.66547 4.125 4.125 9.66547 4.125 16.5C4.125 23.3345 9.66547 28.875 16.5 28.875C23.3345 28.875 28.875 23.3345 28.875 16.5C28.875 16.3833 28.8734 16.2669 28.8703 16.151L32.5137 12.5075C32.8313 13.7859 33 15.1233 33 16.5C33 25.6127 25.6127 33 16.5 33C7.3873 33 0 25.6127 0 16.5C0 7.3873 7.3873 0 16.5 0C17.8767 0 19.2141 0.168615 20.4925 0.486319L16.849 4.12983Z" fill="white"/>
<path d="M8.25 16.4999C8.25 12.6557 10.8792 9.42566 14.4375 8.50983V12.9268C13.2045 13.64 12.375 14.9731 12.375 16.4999C12.375 18.7781 14.2218 20.6249 16.5 20.6249C18.0268 20.6249 19.3599 19.7954 20.0732 18.5624H24.4901C23.5742 22.1207 20.3442 24.75 16.5 24.75C11.9436 24.75 8.25 21.0563 8.25 16.4999Z" fill="white"/>
<path d="M28.8749 4.125L26.8124 0L20.6249 6.1875V9.45819L16.0728 14.0103L18.9896 16.9272L23.5417 12.375H26.8124L32.9999 6.1875L28.8749 4.125Z" fill="white"/>
</g>
<defs>
<clipPath id="clip0_10_164">
<rect width="33" height="33" fill="white"/>
</clipPath>
</defs>
</svg>
