<svg width="43" height="43" viewBox="0 0 43 43" fill="none" xmlns="http://www.w3.org/2000/svg">
<path d="M39.4166 21.5C37.6034 24.6482 34.9926 27.2631 31.8473 29.0813C28.7019 30.8995 25.133 31.8568 21.4999 31.8568C17.8669 31.8568 14.2979 30.8995 11.1526 29.0813C8.00722 27.2631 5.39647 24.6482 3.58325 21.5C5.39647 18.3518 8.00722 15.7369 11.1526 13.9187C14.2979 12.1005 17.8669 11.1432 21.4999 11.1432C25.133 11.1432 28.7019 12.1005 31.8473 13.9187C34.9926 15.7369 37.6034 18.3518 39.4166 21.5Z" stroke="white" stroke-width="2" stroke-miterlimit="10"/>
<path d="M21.5 26.875C24.4685 26.875 26.875 24.4685 26.875 21.5C26.875 18.5315 24.4685 16.125 21.5 16.125C18.5315 16.125 16.125 18.5315 16.125 21.5C16.125 24.4685 18.5315 26.875 21.5 26.875Z" stroke="white" stroke-width="2" stroke-miterlimit="10"/>
</svg>
