<svg width="43" height="43" viewBox="0 0 43 43" fill="none" xmlns="http://www.w3.org/2000/svg">
<path d="M39.4168 21.4998C37.6036 24.6481 34.9929 27.2629 31.8475 29.0811C28.7021 30.8993 25.1332 31.8566 21.5002 31.8566C17.8671 31.8566 14.2982 30.8993 11.1528 29.0811C8.00746 27.2629 5.39671 24.6481 3.5835 21.4998C5.39671 18.3516 8.00746 15.7367 11.1528 13.9185C14.2982 12.1004 17.8671 11.1431 21.5002 11.1431C25.1332 11.1431 28.7021 12.1004 31.8475 13.9185C34.9929 15.7367 37.6036 18.3516 39.4168 21.4998Z" stroke="#4B5563" stroke-width="2" stroke-miterlimit="10"/>
<path d="M21.5 26.875C24.4685 26.875 26.875 24.4685 26.875 21.5C26.875 18.5315 24.4685 16.125 21.5 16.125C18.5315 16.125 16.125 18.5315 16.125 21.5C16.125 24.4685 18.5315 26.875 21.5 26.875Z" stroke="#4B5563" stroke-width="2" stroke-miterlimit="10"/>
</svg>
