<svg width="1440" height="1094" viewBox="0 0 1440 1094" fill="none" xmlns="http://www.w3.org/2000/svg">
<g filter="url(#filter0_f_41_17)">
<path fill-rule="evenodd" clip-rule="evenodd" d="M1146.52 890.791C992.621 903.702 683.846 931.14 653.688 810.029C623.53 688.918 781.635 567.945 1006.82 539.828C1232.01 511.71 1425.97 645.648 1469.17 708.208C1512.37 770.767 1573.8 877.402 1521.82 922.351C1476.04 961.941 1300.42 877.88 1146.52 890.791Z" fill="url(#paint0_linear_41_17)" fill-opacity="0.2"/>
</g>
<g filter="url(#filter1_f_41_17)">
<path fill-rule="evenodd" clip-rule="evenodd" d="M419.954 601.921C157.927 623.223 -156.812 562.916 -192.639 469.239C-228.466 375.561 28.1877 283.987 290.214 262.685C446.286 249.997 526.239 284.746 652.464 315.149C778.689 345.552 836.427 389.091 850.914 426.972C886.741 520.649 681.98 580.62 419.954 601.921Z" fill="url(#paint1_linear_41_17)" fill-opacity="0.2"/>
</g>
<defs>
<filter id="filter0_f_41_17" x="490" y="376" width="1211.71" height="717.042" filterUnits="userSpaceOnUse" color-interpolation-filters="sRGB">
<feFlood flood-opacity="0" result="BackgroundImageFix"/>
<feBlend mode="normal" in="SourceGraphic" in2="BackgroundImageFix" result="shape"/>
<feGaussianBlur stdDeviation="80" result="effect1_foregroundBlur_41_17"/>
</filter>
<filter id="filter1_f_41_17" x="-456" y="0" width="1570.99" height="866.205" filterUnits="userSpaceOnUse" color-interpolation-filters="sRGB">
<feFlood flood-opacity="0" result="BackgroundImageFix"/>
<feBlend mode="normal" in="SourceGraphic" in2="BackgroundImageFix" result="shape"/>
<feGaussianBlur stdDeviation="130" result="effect1_foregroundBlur_41_17"/>
</filter>
<linearGradient id="paint0_linear_41_17" x1="1003.54" y1="637.025" x2="1123.41" y2="909.863" gradientUnits="userSpaceOnUse">
<stop stop-color="#E3B3FF"/>
<stop offset="0.161876" stop-color="#FF711D"/>
<stop offset="0.624586" stop-color="#FEBB66"/>
<stop offset="0.79386" stop-color="#FDCD49"/>
<stop offset="1" stop-color="#FDCD49" stop-opacity="0"/>
</linearGradient>
<linearGradient id="paint1_linear_41_17" x1="820.241" y1="426.171" x2="-86.8064" y2="391.604" gradientUnits="userSpaceOnUse">
<stop stop-color="#62628C" stop-opacity="0"/>
<stop offset="0.07" stop-color="#8686FF"/>
<stop offset="0.48" stop-color="#4242E3"/>
<stop offset="0.91" stop-color="#2FC4FF"/>
<stop offset="1" stop-color="#33A6F9" stop-opacity="0"/>
</linearGradient>
</defs>
</svg>
